<?xml version="1.0" encoding="UTF-8"?>
<svg version="1.1" xmlns="http://www.w3.org/2000/svg" width="360" height="360">
<path d="M0 0 C1.25209259 -0.01302658 2.50418518 -0.02605316 3.79421997 -0.03947449 C4.83402512 -0.0598452 4.83402512 -0.0598452 5.89483643 -0.08062744 C8.18230625 -0.11787194 10.46789984 -0.11796122 12.75564575 -0.11442566 C14.34982024 -0.12541701 15.94398785 -0.13745118 17.53814697 -0.15048218 C20.87891887 -0.17138486 24.21903272 -0.17267143 27.55984497 -0.1615448 C31.83357556 -0.14986128 36.10432932 -0.19733598 40.37751579 -0.26100636 C43.67029214 -0.30167059 46.96235484 -0.30536479 50.25534439 -0.29860497 C51.83021019 -0.30080664 53.40511249 -0.31565241 54.97973251 -0.34356117 C67.28180243 -0.53658963 67.28180243 -0.53658963 71.08508301 2.39857483 C72.625026 4.42730162 73.73593047 6.36072774 74.82595825 8.65510559 C75.52463013 9.61158997 76.223302 10.56807434 76.94314575 11.55354309 C77.52322388 12.37080872 78.103302 13.18807434 78.70095825 14.03010559 C79.59427856 15.27920715 79.59427856 15.27920715 80.50564575 16.55354309 C81.82595825 18.65510559 81.82595825 18.65510559 81.82595825 20.65510559 C82.48595825 20.65510559 83.14595825 20.65510559 83.82595825 20.65510559 C84.34158325 21.60385559 84.85720825 22.55260559 85.38845825 23.53010559 C85.95134552 24.47914513 85.95134552 24.47914513 86.52560425 25.44735718 C87.44620485 27.01035811 88.3180468 28.602553 89.15414429 30.21234131 C92.27115315 35.60256695 92.27115315 35.60256695 97.54043579 38.52598572 C100.86111781 38.79687646 104.04478479 38.75436606 107.37283325 38.59651184 C108.57981873 38.57999069 109.7868042 38.56346954 111.03036499 38.54644775 C114.88156134 38.48402928 118.72669371 38.35277318 122.57595825 38.21760559 C126.41007277 38.13000592 130.24425574 38.0564339 134.07870483 37.98516846 C136.45982529 37.9357458 138.84073634 37.87417864 141.22116089 37.79830933 C162.04706663 37.18452956 162.04706663 37.18452956 166.82595825 41.65510559 C168.50681631 45.80784497 169.07670263 49.31719636 169.07992554 53.77854919 C169.08556519 54.98424057 169.09120483 56.18993195 169.09701538 57.43215942 C169.09094269 59.39610909 169.09094269 59.39610909 169.08474731 61.3997345 C169.08745957 62.80298036 169.09102181 64.2062248 169.09536743 65.60946655 C169.10446419 69.40888112 169.10095886 73.20818676 169.09460926 77.00760317 C169.08953721 80.98689849 169.09424388 84.96618465 169.09738159 88.94548035 C169.10101687 95.62507295 169.09623275 102.30462128 169.08670044 108.98420715 C169.07580781 116.70618692 169.07934907 124.42806114 169.09035325 132.15003836 C169.09942798 138.78372178 169.10071077 145.41737342 169.09547591 152.05106103 C169.09235838 156.01157829 169.09194111 159.97204591 169.09854889 163.93255997 C169.10432473 167.65409988 169.10032115 171.37550354 169.08876038 175.09702873 C169.08485359 177.11438688 169.09079679 179.13175654 169.09701538 181.14910889 C169.09137573 182.34916061 169.08573608 183.54921234 169.07992554 184.78562927 C169.07879446 186.35020591 169.07879446 186.35020591 169.07764053 187.94639015 C168.82387052 190.67757473 168.2299382 192.32520244 166.82595825 194.65510559 C166.16595825 194.65510559 165.50595825 194.65510559 164.82595825 194.65510559 C164.82595825 195.31510559 164.82595825 195.97510559 164.82595825 196.65510559 C162.51473385 197.81071779 161.18949235 197.7868563 158.61698627 197.79935741 C157.28508966 197.80941918 157.28508966 197.80941918 155.92628604 197.81968421 C154.94469475 197.82202655 153.96310345 197.8243689 152.95176697 197.82678223 C151.91369123 197.83313134 150.87561549 197.83948044 149.8060829 197.84602195 C146.30465927 197.86616809 142.80324523 197.87915224 139.30178833 197.89216614 C136.80056555 197.90501206 134.29934483 197.91826624 131.79812622 197.93190002 C125.69463752 197.96387786 119.59114503 197.99106595 113.48762367 198.01570281 C108.5258628 198.03574951 103.56411113 198.05734592 98.60236168 198.08004189 C84.5385843 198.14418425 70.47479789 198.20410722 56.41098026 198.258724 C55.65226626 198.26167104 54.89355226 198.26461808 54.11184692 198.26765442 C52.97238754 198.27207902 52.97238754 198.27207902 51.80990877 198.27659301 C39.50568608 198.32462958 27.20153397 198.38270888 14.89737777 198.4453521 C2.26715993 198.50953867 -10.36307234 198.5661589 -22.99335939 198.61491996 C-30.0856392 198.6424573 -37.17787363 198.67312561 -44.27010155 198.71193504 C-50.94222435 198.74838121 -57.6143073 198.77433957 -64.28650665 198.79321289 C-66.73628273 198.80179263 -69.18604946 198.81383996 -71.63578987 198.82959938 C-74.97888276 198.85056573 -78.32178314 198.85904447 -81.66493225 198.86437988 C-83.12058878 198.87793165 -83.12058878 198.87793165 -84.60565251 198.89175719 C-89.86274497 198.88524891 -94.19900315 198.38203309 -99.17404175 196.65510559 C-99.17404175 195.99510559 -99.17404175 195.33510559 -99.17404175 194.65510559 C-100.16404175 194.32510559 -101.15404175 193.99510559 -102.17404175 193.65510559 C-103.30109964 186.42024902 -103.32875077 179.2870449 -103.33517456 171.97468567 C-103.3398107 170.60232411 -103.34483642 169.22996381 -103.35021973 167.85760498 C-103.36325926 164.15125008 -103.36977072 160.4449132 -103.37423038 156.73853898 C-103.37717163 154.42078999 -103.38127812 152.10304584 -103.38573456 149.7852993 C-103.39938014 142.52645703 -103.40906412 135.26762592 -103.41293645 128.00877172 C-103.41742606 119.64072611 -103.43502792 111.27284312 -103.46393704 102.90484697 C-103.48554515 96.42482762 -103.49564007 89.9448541 -103.49697757 83.46479911 C-103.49802517 79.59868989 -103.50392475 75.73273416 -103.52179718 71.86666298 C-103.53826543 68.2345266 -103.54043963 64.60265943 -103.53165817 60.97049904 C-103.53052022 59.00462005 -103.5442426 57.03875002 -103.55841064 55.07292175 C-103.55284149 53.89962814 -103.54727234 52.72633453 -103.54153442 51.51748657 C-103.54300098 50.50007794 -103.54446754 49.48266932 -103.54597855 48.43443012 C-102.97143432 44.14110699 -101.26623052 41.51399815 -97.88998413 38.8589325 C-94.61138672 37.40571176 -92.30005074 37.32488023 -88.71896362 37.39387512 C-87.43413086 37.41024017 -86.1492981 37.42660522 -84.82553101 37.44346619 C-84.14406509 37.45906712 -83.46259918 37.47466805 -82.76048279 37.49074173 C-80.61632067 37.53850779 -78.47279569 37.56546104 -76.32821655 37.5867157 C-70.2341417 37.65075347 -64.14086888 37.75158324 -58.0475769 37.86750793 C-54.31363428 37.93710894 -50.58002184 37.98217711 -46.8455658 38.01267624 C-45.42609617 38.02941711 -44.00670533 38.05577852 -42.58760071 38.09206009 C-40.60189096 38.14261803 -38.61541224 38.1595717 -36.62911987 38.17512512 C-34.93631897 38.20535263 -34.93631897 38.20535263 -33.20932007 38.2361908 C-29.18030835 37.4648615 -27.75008655 35.77284837 -25.17404175 32.65510559 C-23.38083351 29.48865085 -23.38083351 29.48865085 -22.17404175 26.65510559 C-21.51404175 26.65510559 -20.85404175 26.65510559 -20.17404175 26.65510559 C-20.17404175 25.99510559 -20.17404175 25.33510559 -20.17404175 24.65510559 C-19.51404175 24.65510559 -18.85404175 24.65510559 -18.17404175 24.65510559 C-18.05327271 24.06721252 -17.93250366 23.47931946 -17.80807495 22.87361145 C-17.15952687 20.60431748 -16.3431649 19.10673144 -15.0295105 17.15901184 C-14.38465698 16.19704895 -14.38465698 16.19704895 -13.72677612 15.21565247 C-13.27624878 14.556297 -12.82572144 13.89694153 -12.36154175 13.21760559 C-11.92261597 12.56211731 -11.48369019 11.90662903 -11.03146362 11.23127747 C-9.76530031 9.35554965 -8.49758437 7.49091043 -7.17404175 5.65510559 C-6.6297905 4.80563354 -6.08553925 3.9561615 -5.52479553 3.08094788 C-3.17404175 0.65510559 -3.17404175 0.65510559 0 0 Z M14.82595825 14.65510559 C12.94945083 18.98276025 12.61236759 22.22800495 12.70095825 26.96760559 C12.71900513 28.2218634 12.737052 29.47612122 12.75564575 30.76838684 C12.77884888 31.72100403 12.802052 32.67362122 12.82595825 33.65510559 C18.85028204 36.55471724 25.18086566 35.99019922 31.7102356 35.97077942 C33.95112122 35.96760536 36.190703 35.99115501 38.431427 36.01643372 C39.85720659 36.01870556 41.28298972 36.01941074 42.70877075 36.01838684 C44.64840698 36.02285828 44.64840698 36.02285828 46.62722778 36.02742004 C49.76670691 35.91195335 49.76670691 35.91195335 51.74807739 34.34919739 C53.55517422 31.50900601 53.21588984 28.40723227 53.13845825 25.15510559 C53.14168091 24.47834778 53.14490356 23.80158997 53.14822388 23.10432434 C53.10825993 19.42037545 52.91790522 17.79302605 50.82595825 14.65510559 C48.0596691 14.38834399 45.51976194 14.30706371 42.75564575 14.36213684 C41.56130417 14.3685041 41.56130417 14.3685041 40.34283447 14.375 C37.79520097 14.39181725 35.24835337 14.42947381 32.70095825 14.46760559 C30.97570925 14.48264855 29.25044786 14.49633763 27.525177 14.50862122 C23.29180044 14.54173058 19.05901266 14.59353274 14.82595825 14.65510559 Z M-5.42404175 84.78010559 C-12.91048301 93.72994586 -17.25216654 104.02923488 -18.17404175 115.65510559 C-18.27716675 116.95448059 -18.38029175 118.25385559 -18.48654175 119.59260559 C-18.20855757 128.469567 -15.53176873 136.99151676 -11.17404175 144.65510559 C-10.51404175 144.65510559 -9.85404175 144.65510559 -9.17404175 144.65510559 C-8.92654175 145.37698059 -8.67904175 146.09885559 -8.42404175 146.84260559 C-6.36851267 151.46754601 -3.45842698 154.94166161 0.82595825 157.65510559 C1.48595825 157.65510559 2.14595825 157.65510559 2.82595825 157.65510559 C2.82595825 158.31510559 2.82595825 158.97510559 2.82595825 159.65510559 C4.46615426 160.60243376 6.11350095 161.53738275 7.76345825 162.46760559 C8.67998169 162.9896759 9.59650513 163.51174622 10.540802 164.04963684 C17.98144895 167.6859102 24.48567872 169.16841303 32.76345825 169.03010559 C33.64372681 169.01995422 34.52399536 169.00980286 35.43093872 168.99934387 C48.54973539 168.68554362 59.30380391 163.74443473 68.82595825 154.65510559 C71.00694026 152.10106087 72.93119903 149.42625216 74.82595825 146.65510559 C75.35576294 145.92549622 75.88556763 145.19588684 76.431427 144.44416809 C83.1826434 134.40902668 85.01859395 122.44699676 82.82595825 110.65510559 C82.5958606 109.22617981 82.5958606 109.22617981 82.3611145 107.76838684 C79.55634159 93.74452226 71.13281391 82.73633567 59.45095825 74.90510559 C37.62448896 61.55173755 11.87228385 66.77849293 -5.42404175 84.78010559 Z " fill="#FEFEFE" transform="translate(147.17404174804688,80.34489440917969)"/>
<path d="M0 0 C1.38125018 2.76250036 1.19079306 4.94731099 1 8 C0.34 8.66 -0.32 9.32 -1 10 C-1.825 9.95875 -2.65 9.9175 -3.5 9.875 C-8.52040465 10.05430017 -12.47389306 11.92763307 -17 14 C-17.98419922 14.433125 -17.98419922 14.433125 -18.98828125 14.875 C-25.93642814 18.32596431 -30.03711296 24.74474948 -32.48828125 31.9140625 C-33.22760203 34.92778231 -33.4622647 37.92414806 -33.59375 41.01953125 C-34.110082 43.53664976 -34.9652425 44.46783248 -37 46 C-40.34192692 45.75546876 -41.60543557 45.39456443 -44 43 C-45.42402345 33.38321824 -42.66064968 24.99432535 -37.1875 17.1875 C-34.11208109 13.18888904 -31.15251979 9.86721605 -27 7 C-26.34 7 -25.68 7 -25 7 C-25 6.34 -25 5.68 -25 5 C-6.24508613 -2.7478379 -6.24508613 -2.7478379 0 0 Z " fill="#F0F0F0" transform="translate(183,158)"/>
<path d="M0 0 C1.71858504 0.97907269 3.39265888 2.03536418 5.05859375 3.1015625 C5.05859375 3.7615625 5.05859375 4.4215625 5.05859375 5.1015625 C5.71859375 5.1015625 6.37859375 5.1015625 7.05859375 5.1015625 C7.05859375 10.0515625 7.05859375 15.0015625 7.05859375 20.1015625 C4.17594226 21.06244633 2.38197104 21.21827191 -0.609375 21.19921875 C-1.50205078 21.19599609 -2.39472656 21.19277344 -3.31445312 21.18945312 C-4.70760742 21.17688477 -4.70760742 21.17688477 -6.12890625 21.1640625 C-7.06927734 21.15955078 -8.00964844 21.15503906 -8.97851562 21.15039062 C-11.29954337 21.13860876 -13.62044269 21.12215808 -15.94140625 21.1015625 C-17.0364223 16.07525931 -17.69992375 11.2257696 -16.94140625 6.1015625 C-12.77931021 0.55210112 -6.92394487 -3.20424008 0 0 Z " fill="#F9F9F9" transform="translate(291.94140625,94.8984375)"/>
<path d="M0 0 C0.66 0.33 1.32 0.66 2 1 C2 1.99 2 2.98 2 4 C-0.31 5.32 -2.62 6.64 -5 8 C-5.99 7.01 -6.98 6.02 -8 5 C-7.01 4.67 -6.02 4.34 -5 4 C-5 3.34 -5 2.68 -5 2 C-2.625 0.9375 -2.625 0.9375 0 0 Z " fill="#E8E8E8" transform="translate(163,161)"/>
<path d="M0 0 C0.93065133 2.60582371 1.14917407 3.64198224 0.0625 6.25 C-0.4634375 7.11625 -0.4634375 7.11625 -1 8 C-1.66 8 -2.32 8 -3 8 C-3.99 8.495 -3.99 8.495 -5 9 C-3.7508258 5.54074837 -2.32472205 2.85306797 0 0 Z " fill="#DEDEDE" transform="translate(134,95)"/>
</svg>
