<?xml version="1.0" encoding="UTF-8"?>
<svg version="1.1" xmlns="http://www.w3.org/2000/svg" width="500" height="500">
<path d="M0 0 C21.14733646 -0.6681164 38.31428704 5.73679675 54.02734375 19.7421875 C56.40625 22.16015625 56.40625 22.16015625 57.40625 25.16015625 C58.39625 25.49015625 59.38625 25.82015625 60.40625 26.16015625 C62.23046875 28.59375 62.23046875 28.59375 64.09375 31.59765625 C64.71636719 32.58636719 65.33898437 33.57507813 65.98046875 34.59375 C67.40625 37.16015625 67.40625 37.16015625 67.40625 39.16015625 C59.15625 39.16015625 50.90625 39.16015625 42.40625 39.16015625 C42.40625 42.13015625 42.40625 45.10015625 42.40625 48.16015625 C52.30625 48.16015625 62.20625 48.16015625 72.40625 48.16015625 C73.39625 52.12015625 74.38625 56.08015625 75.40625 60.16015625 C74.40625 61.16015625 74.40625 61.16015625 71.35522461 61.27368164 C70.00633729 61.27352259 68.65744386 61.26783237 67.30859375 61.2578125 C66.24530602 61.25569008 66.24530602 61.25569008 65.16053772 61.25352478 C62.88823288 61.24791068 60.61602525 61.23535588 58.34375 61.22265625 C56.80664204 61.21764306 55.26953255 61.21307984 53.73242188 61.20898438 C49.95699358 61.19793667 46.18163829 61.18066266 42.40625 61.16015625 C42.40625 63.80015625 42.40625 66.44015625 42.40625 69.16015625 C53.62625 69.16015625 64.84625 69.16015625 76.40625 69.16015625 C76.40625 72.79015625 76.40625 76.42015625 76.40625 80.16015625 C65.18625 80.16015625 53.96625 80.16015625 42.40625 80.16015625 C42.40625 83.13015625 42.40625 86.10015625 42.40625 89.16015625 C53.62625 89.16015625 64.84625 89.16015625 76.40625 89.16015625 C76.40625 93.45015625 76.40625 97.74015625 76.40625 102.16015625 C75.40625 103.16015625 75.40625 103.16015625 72.26342773 103.27368164 C70.87222303 103.27352258 69.48101239 103.26783131 68.08984375 103.2578125 C67.35878922 103.25639755 66.62773468 103.2549826 65.87452698 103.25352478 C63.53089368 103.24791033 61.18735461 103.23535547 58.84375 103.22265625 C57.25846492 103.21764311 55.67317834 103.21307988 54.08789062 103.20898438 C50.1939739 103.19793622 46.30012795 103.18066197 42.40625 103.16015625 C42.40625 105.47015625 42.40625 107.78015625 42.40625 110.16015625 C53.62625 110.16015625 64.84625 110.16015625 76.40625 110.16015625 C76.40625 114.45015625 76.40625 118.74015625 76.40625 123.16015625 C65.18625 123.16015625 53.96625 123.16015625 42.40625 123.16015625 C42.40625 126.13015625 42.40625 129.10015625 42.40625 132.16015625 C53.62625 132.16015625 64.84625 132.16015625 76.40625 132.16015625 C76.40625 136.12015625 76.40625 140.08015625 76.40625 144.16015625 C72.18807742 145.00379077 68.82747632 145.27654932 64.57421875 145.2578125 C63.28193359 145.25458984 61.98964844 145.25136719 60.65820312 145.24804688 C59.30338474 145.2396929 57.94856703 145.23122797 56.59375 145.22265625 C55.21940265 145.21763625 53.84505355 145.21307422 52.47070312 145.20898438 C49.11584076 145.19721293 45.76106779 145.18076908 42.40625 145.16015625 C42.40625 147.80015625 42.40625 150.44015625 42.40625 153.16015625 C53.62625 153.16015625 64.84625 153.16015625 76.40625 153.16015625 C76.40625 168.54659716 75.15842589 181.93974436 66.7109375 195.03125 C65.26245252 197.21473571 65.26245252 197.21473571 64.40625 200.16015625 C63.74625 200.16015625 63.08625 200.16015625 62.40625 200.16015625 C62.14585937 200.73636719 61.88546875 201.31257812 61.6171875 201.90625 C60.31905192 204.3224572 58.8443257 206.16810104 57.03125 208.22265625 C56.44601562 208.89425781 55.86078125 209.56585938 55.2578125 210.2578125 C53.41605971 212.1500775 51.60896456 213.70527688 49.40625 215.16015625 C48.74625 215.16015625 48.08625 215.16015625 47.40625 215.16015625 C47.40625 215.82015625 47.40625 216.48015625 47.40625 217.16015625 C41.51538512 222.25102713 34.67675556 224.7366544 27.40625 227.16015625 C25.74142578 227.94326172 25.74142578 227.94326172 24.04296875 228.7421875 C18.21433171 230.93127283 12.04305173 230.68101815 5.89990234 230.66113281 C3.8055342 230.66016744 1.71492841 230.7017224 -0.37890625 230.74609375 C-10.08427773 230.83059655 -17.60582795 229.04979489 -26.59375 225.16015625 C-27.37564697 224.82798096 -28.15754395 224.49580566 -28.96313477 224.15356445 C-45.04430066 217.02533448 -57.75144668 202.95050957 -64.9765625 187.1328125 C-65.97495842 184.49630771 -66.82343296 181.87116154 -67.59375 179.16015625 C-67.81675781 178.47308594 -68.03976563 177.78601563 -68.26953125 177.078125 C-70.4423187 169.34773156 -69.71872607 161.09613699 -69.59375 153.16015625 C-60.02375 153.16015625 -50.45375 153.16015625 -40.59375 153.16015625 C-40.59375 150.52015625 -40.59375 147.88015625 -40.59375 145.16015625 C-41.43671631 145.16539307 -42.27968262 145.17062988 -43.14819336 145.17602539 C-46.26602936 145.19303451 -49.38384177 145.20559031 -52.50170898 145.21508789 C-53.85295386 145.22012682 -55.20419326 145.22695802 -56.55541992 145.2355957 C-58.49395434 145.24768044 -60.432528 145.25285453 -62.37109375 145.2578125 C-63.53890381 145.26304932 -64.70671387 145.26828613 -65.90991211 145.27368164 C-68.59375 145.16015625 -68.59375 145.16015625 -69.59375 144.16015625 C-69.59375 140.20015625 -69.59375 136.24015625 -69.59375 132.16015625 C-60.02375 132.16015625 -50.45375 132.16015625 -40.59375 132.16015625 C-40.59375 129.19015625 -40.59375 126.22015625 -40.59375 123.16015625 C-50.16375 123.16015625 -59.73375 123.16015625 -69.59375 123.16015625 C-69.59375 118.87015625 -69.59375 114.58015625 -69.59375 110.16015625 C-60.02375 110.16015625 -50.45375 110.16015625 -40.59375 110.16015625 C-40.59375 107.85015625 -40.59375 105.54015625 -40.59375 103.16015625 C-50.16375 103.16015625 -59.73375 103.16015625 -69.59375 103.16015625 C-69.59375 98.54015625 -69.59375 93.92015625 -69.59375 89.16015625 C-60.02375 89.16015625 -50.45375 89.16015625 -40.59375 89.16015625 C-40.59375 86.19015625 -40.59375 83.22015625 -40.59375 80.16015625 C-50.16375 80.16015625 -59.73375 80.16015625 -69.59375 80.16015625 C-69.59375 76.53015625 -69.59375 72.90015625 -69.59375 69.16015625 C-60.02375 69.16015625 -50.45375 69.16015625 -40.59375 69.16015625 C-40.59375 66.52015625 -40.59375 63.88015625 -40.59375 61.16015625 C-49.83375 61.16015625 -59.07375 61.16015625 -68.59375 61.16015625 C-67.59375 52.16015625 -67.59375 52.16015625 -65.59375 48.16015625 C-57.34375 48.16015625 -49.09375 48.16015625 -40.59375 48.16015625 C-40.59375 45.19015625 -40.59375 42.22015625 -40.59375 39.16015625 C-47.19375 39.16015625 -53.79375 39.16015625 -60.59375 39.16015625 C-58.72440365 31.68277084 -52.72010246 22.73912654 -46.09375 18.59765625 C-45.26875 18.12328125 -44.44375 17.64890625 -43.59375 17.16015625 C-42.51480469 16.00580078 -42.51480469 16.00580078 -41.4140625 14.828125 C-38.1601085 11.7499386 -34.96969223 9.96741598 -30.96875 8.03515625 C-30.26161865 7.6889624 -29.5544873 7.34276855 -28.82592773 6.98608398 C-19.44367569 2.51281541 -10.30682236 0.63641524 0 0 Z " fill="#F4F4F4" transform="translate(248.59375,67.83984375)"/>
<path d="M0 0 C4.14581887 -0.02886751 8.29161216 -0.04675327 12.4375 -0.0625 C14.21350586 -0.07506836 14.21350586 -0.07506836 16.02539062 -0.08789062 C17.15009766 -0.09111328 18.27480469 -0.09433594 19.43359375 -0.09765625 C20.47572021 -0.10289307 21.51784668 -0.10812988 22.59155273 -0.11352539 C25 0 25 0 26 1 C26.14115161 3.67058851 26.04247107 6.32432238 26 9 C29.3 9 32.6 9 36 9 C36 15.6 36 22.2 36 29 C32.7 29 29.4 29 26 29 C26.40619271 43.63969919 26.40619271 43.63969919 29 58 C29.20496094 58.79019531 29.40992188 59.58039063 29.62109375 60.39453125 C33.52468892 74.39895461 39.50945461 85.58588158 49.4609375 96.15234375 C51 98 51 98 51 100 C51.56847656 100.25394531 52.13695312 100.50789063 52.72265625 100.76953125 C55.27655297 102.14942399 57.23535036 103.79729061 59.4375 105.6875 C77.32946487 120.04781433 99.80405292 125.72006632 122.4375 123.4375 C138.52161168 120.88528207 153.57426781 114.86922184 166.125 104.41796875 C168 103 168 103 171 102 C171 101.34 171 100.68 171 100 C171.66 100 172.32 100 173 100 C173.41185547 99.10474609 173.41185547 99.10474609 173.83203125 98.19140625 C174.95009519 96.09363411 176.07507375 94.66478401 177.6875 92.9375 C184.97005369 84.57144442 189.43120102 75.43751483 193 65 C193.37862183 64.0560437 193.37862183 64.0560437 193.76489258 63.09301758 C196.38992939 56.17421054 196.7622113 49.27665641 197.1875 41.9375 C197.3102832 40.06674805 197.3102832 40.06674805 197.43554688 38.15820312 C197.63435059 35.10598131 197.82222191 32.05350634 198 29 C195.36 29 192.72 29 190 29 C189.97111486 25.85418577 189.95324077 22.70840531 189.9375 19.5625 C189.92912109 18.66466797 189.92074219 17.76683594 189.91210938 16.84179688 C189.90888672 15.98779297 189.90566406 15.13378906 189.90234375 14.25390625 C189.89710693 13.46314697 189.89187012 12.6723877 189.88647461 11.85766602 C190 10 190 10 191 9 C193.33297433 8.95907063 195.66705225 8.95758277 198 9 C198 6.03 198 3.06 198 0 C206.58 0 215.16 0 224 0 C224.09257717 7.50389432 224.17199111 15.00575203 224.21972656 22.50976562 C224.23965699 25.05443084 224.26681128 27.59905139 224.30175781 30.14355469 C224.54231144 48.12847584 224.13757815 65.09918304 216.75 81.8125 C216.31264526 82.84141357 216.31264526 82.84141357 215.86645508 83.89111328 C212.8879829 90.66872931 209.11286813 96.85433497 205 103 C204.34 103.99 203.68 104.98 203 106 C202.34 106 201.68 106 201 106 C200.60361328 106.87205078 200.60361328 106.87205078 200.19921875 107.76171875 C196.76646324 114.16878359 190.53617032 120.32566095 185 125 C184.34 125 183.68 125 183 125 C183 125.66 183 126.32 183 127 C173.29105846 135.22563103 160.03637557 141.93696798 147.84375 145.2265625 C145.29893959 145.918695 142.93934072 146.75788008 140.5 147.75 C137 149 137 149 132 149 C132 167.48 132 185.96 132 205 C146.49443315 204.88153987 146.49443315 204.88153987 160.98852539 204.72973633 C162.81656365 204.72096781 164.6446078 204.71332474 166.47265625 204.70703125 C167.87638489 204.6840094 167.87638489 204.6840094 169.30847168 204.66052246 C175.79268553 204.65794698 181.17350903 205.1956342 185.99609375 209.98046875 C189.48615147 215.32432406 191.01412328 218.61102335 190 225 C188.54230372 229.42977702 186.75323296 232.33236169 183.25 235.4375 C176.26358136 238.79635511 168.15782741 238.14856127 160.55444336 238.14526367 C159.43310501 238.14862228 158.31176666 238.1519809 157.15644836 238.15544128 C153.46756875 238.16490327 149.77873472 238.16689172 146.08984375 238.16796875 C143.51729819 238.17118361 140.94475282 238.17454786 138.37220764 238.17805481 C132.98828631 238.18403344 127.60438297 238.18593887 122.22045898 238.18530273 C116.00947604 238.18470132 109.79857977 238.19527203 103.58761877 238.2110464 C97.59365209 238.2257233 91.59973235 238.22929018 85.60574532 238.22869301 C83.06326505 238.2298723 80.52078413 238.2342912 77.97831535 238.24202538 C74.42419097 238.25182853 70.87029013 238.24894622 67.31616211 238.24291992 C66.26921173 238.24853943 65.22226135 238.25415894 64.14358521 238.25994873 C55.41011974 238.22234243 49.38898171 237.24040074 43 231 C39.90750389 226.11766882 40.30099511 220.56291394 41 215 C42.71063043 210.63178301 44.84791635 208.6066181 48.98046875 206.43066406 C53.63845665 204.48836725 58.10910168 204.62139279 63.08984375 204.70703125 C64.34722351 204.71156311 64.34722351 204.71156311 65.63000488 204.71618652 C68.73263023 204.73176914 71.83507873 204.77365241 74.9375 204.8125 C81.888125 204.874375 88.83875 204.93625 96 205 C96 186.85 96 168.7 96 150 C90.555 149.01 90.555 149.01 85 148 C81.43252586 146.98296843 77.94548348 145.93460254 74.4375 144.75 C73.52145996 144.44280029 72.60541992 144.13560059 71.66162109 143.8190918 C65.22049449 141.58717188 59.6141527 138.88760065 54 135 C52.81894552 134.34245361 51.6317125 133.69583517 50.4375 133.0625 C45.94352248 130.51873914 42.00775595 127.23561948 38 124 C36.96875 123.195625 35.9375 122.39125 34.875 121.5625 C31.2236793 118.30806199 28.10526754 114.77169482 25 111 C24.51789063 110.41734375 24.03578125 109.8346875 23.5390625 109.234375 C16.19401334 99.90088712 9.80747933 89.26155859 6 78 C5.65324219 77.02289063 5.30648437 76.04578125 4.94921875 75.0390625 C1.22889161 64.2974634 -0.29334653 55.05217068 -0.1953125 43.65234375 C-0.1924826 42.39990372 -0.18965271 41.14746368 -0.18673706 39.85707092 C-0.17749154 36.55761894 -0.15958161 33.25836928 -0.1373291 29.95898438 C-0.11672119 26.58010307 -0.10770368 23.20119192 -0.09765625 19.82226562 C-0.0756863 13.21476581 -0.04227677 6.60739943 0 0 Z " fill="#F0F0F0" transform="translate(138,194)"/>
<path d="M0 0 C0.66 0.33 1.32 0.66 2 1 C2 3 2 3 0.4609375 4.55078125 C-0.22742188 5.13214844 -0.91578125 5.71351562 -1.625 6.3125 C-2.71167969 7.23675781 -2.71167969 7.23675781 -3.8203125 8.1796875 C-4.53960937 8.78039062 -5.25890625 9.38109375 -6 10 C-6.61617187 10.51820312 -7.23234375 11.03640625 -7.8671875 11.5703125 C-9.23975123 12.71958835 -10.6190983 13.8607561 -12 15 C-12 10.91016814 -10.29492077 9.60580537 -7.6640625 6.64453125 C-5.65200146 4.65608595 -3.47787683 3.34513313 -1 2 C-0.67 1.34 -0.34 0.68 0 0 Z " fill="#808080" transform="translate(206,83)"/>
</svg>
