<?xml version="1.0" encoding="UTF-8"?>
<svg version="1.1" xmlns="http://www.w3.org/2000/svg" width="842" height="854">
<path d="M0 0 C4.85866431 3.65331792 8.18964029 9.13532711 10.08984375 14.8359375 C10.9729 26.66892532 9.09393802 37.04338738 6.12890625 48.42578125 C5.69951091 50.13332899 5.27185889 51.84131591 4.84579468 53.54969788 C3.71508002 58.06485155 2.56238706 62.57409249 1.40423584 67.08227539 C0.30313275 71.38062309 -0.77959764 75.68356293 -1.86328125 79.98632812 C-3.21290705 85.34482156 -4.56466991 90.70274994 -5.92425442 96.05872631 C-9.81806782 111.41329796 -13.6213305 126.78950913 -17.40223692 142.17215943 C-24.37523507 170.54164585 -31.4002977 198.89785653 -38.48657227 227.23925781 C-38.6887278 228.04778997 -38.89088334 228.85632213 -39.0991648 229.68935527 C-41.62623513 239.79576258 -44.15534404 249.90165927 -46.68507795 260.00740014 C-48.95108712 269.05996149 -51.21539092 278.1129492 -53.479604 287.16595992 C-57.53560238 303.38298784 -61.59248245 319.59979502 -65.65014648 335.81640625 C-66.00949241 337.25254824 -66.00949241 337.25254824 -66.37609785 338.71770319 C-68.07492622 345.50712074 -69.77378766 352.29653001 -71.47265625 359.0859375 C-73.41530664 366.84960351 -75.35794116 374.61327349 -77.30053711 382.37695312 C-77.65986773 383.81303342 -77.65986773 383.81303342 -78.02645756 385.27812544 C-82.07682344 401.46571735 -86.1261972 417.6535573 -90.17491668 433.84156108 C-92.42293359 442.82963731 -94.67143223 451.81759243 -96.92126656 460.80521393 C-106.40078162 498.67448074 -115.84424541 536.55193301 -125.15637302 574.46275711 C-131.6675649 600.96711037 -138.29155186 627.44283883 -144.92626953 653.91650391 C-146.92243422 661.88242877 -148.91482158 669.8492962 -150.90625 677.81640625 C-151.07153261 678.47763237 -151.23681522 679.13885849 -151.4071064 679.82012177 C-152.74046739 685.15441856 -154.07363582 690.48876347 -155.40678787 695.82311249 C-156.56406824 700.45371268 -157.72143678 705.08429082 -158.87890625 709.71484375 C-159.04292875 710.37104958 -159.20695126 711.0272554 -159.37594414 711.70334625 C-161.79889606 721.39641616 -164.22550317 731.08856636 -166.65387726 740.78027916 C-168.06712707 746.42114777 -169.47952608 752.06222943 -170.89183044 757.70333481 C-171.40680883 759.7600685 -171.92196269 761.81675818 -172.43713379 763.8734436 C-177.05055039 782.28605336 -177.05055039 782.28605336 -181.55078125 800.7265625 C-181.83417358 801.90364525 -181.83417358 801.90364525 -182.12329102 803.10450745 C-182.93298646 806.47475548 -183.73605555 809.84628667 -184.52929688 813.22045898 C-190.7961096 839.58567202 -190.7961096 839.58567202 -202.09765625 846.8984375 C-209.9932655 848.83998076 -217.56112598 849.1451898 -224.82836914 845.22924805 C-228.8595059 842.53126547 -232.08494795 839.02732275 -235.41015625 835.5234375 C-236.83468788 834.04571298 -238.26175699 832.57043021 -239.69140625 831.09765625 C-240.31080078 830.44756592 -240.93019531 829.79747559 -241.56835938 829.12768555 C-243.53996846 827.19821364 -245.54822157 825.40154686 -247.63671875 823.6027832 C-252.13180623 819.70041984 -256.31977102 815.53555764 -260.50390625 811.3046875 C-261.29486694 810.50994019 -262.08582764 809.71519287 -262.90075684 808.8963623 C-266.25034198 805.53058202 -269.59388895 802.15882702 -272.93798828 798.78759766 C-275.39536564 796.31203523 -277.85581683 793.83955667 -280.31640625 791.3671875 C-281.05934937 790.61594604 -281.80229248 789.86470459 -282.56774902 789.09069824 C-286.56149782 785.07848176 -290.65365318 781.27404583 -294.94161987 777.57962036 C-298.37693498 774.53669967 -301.58081356 771.26764232 -304.8046875 768.00390625 C-305.51872238 767.28608475 -306.23275726 766.56826324 -306.96842957 765.82868958 C-309.22231027 763.56271156 -311.47288352 761.29349368 -313.72265625 759.0234375 C-316.70545982 756.01405543 -319.69155305 753.00799405 -322.6796875 750.00390625 C-323.36094193 749.31435349 -324.04219635 748.62480072 -324.74409485 747.91435242 C-325.69604988 746.95744255 -325.69604988 746.95744255 -326.66723633 745.98120117 C-327.22268631 745.42051437 -327.77813629 744.85982758 -328.35041809 744.28215027 C-330.05584036 742.62400358 -330.05584036 742.62400358 -332.91015625 740.8359375 C-332.91015625 740.1759375 -332.91015625 739.5159375 -332.91015625 738.8359375 C-333.5066095 738.56512863 -334.10306274 738.29431976 -334.71759033 738.01530457 C-336.88590855 736.84898018 -338.27278227 735.71012658 -339.99121094 733.96606445 C-340.56570984 733.3881868 -341.14020874 732.81030914 -341.7321167 732.21492004 C-342.6478244 731.2790229 -342.6478244 731.2790229 -343.58203125 730.32421875 C-344.22327942 729.67776901 -344.86452759 729.03131927 -345.52520752 728.36528015 C-347.57500387 726.29769724 -349.6180107 724.22357526 -351.66015625 722.1484375 C-353.68881887 720.09197504 -355.71898185 718.03705431 -357.7522583 715.9851532 C-359.01518291 714.71017191 -360.27542965 713.43252996 -361.53240967 712.15168762 C-365.2019204 708.44135769 -369.00888875 704.97270353 -372.95758057 701.56242371 C-376.02019364 698.85443176 -378.88524624 695.9652614 -381.75390625 693.0546875 C-382.36729858 692.43750854 -382.98069092 691.82032959 -383.6126709 691.18444824 C-386.19765143 688.58334961 -388.77653447 685.97623736 -391.35595703 683.36962891 C-400.50142521 674.08587889 -400.50142521 674.08587889 -410.16601562 665.35302734 C-413.40731228 662.53368 -416.39512412 659.45552479 -419.41015625 656.3984375 C-420.04179687 655.76228516 -420.6734375 655.12613281 -421.32421875 654.47070312 C-422.85521399 652.92810944 -424.38303292 651.38236436 -425.91015625 649.8359375 C-429.96999147 651.65591847 -431.84700325 654.15728914 -434.28515625 657.7734375 C-435.17293624 659.0518541 -436.06234909 660.32913784 -436.953125 661.60546875 C-437.66734619 662.63341553 -437.66734619 662.63341553 -438.39599609 663.68212891 C-441.06993296 667.48565536 -443.83471436 671.2218179 -446.59765625 674.9609375 C-447.18724121 675.76007568 -447.77682617 676.55921387 -448.38427734 677.38256836 C-453.32245793 684.06468897 -458.30889764 690.71013451 -463.30126953 697.35180664 C-467.55336904 703.01338412 -471.77550981 708.69601019 -475.97265625 714.3984375 C-476.54773926 715.17977051 -477.12282227 715.96110352 -477.71533203 716.76611328 C-480.59278747 720.67845014 -483.46579285 724.59401632 -486.3359375 728.51171875 C-492.52941563 736.95473559 -498.79396187 745.33467304 -505.16015625 753.6484375 C-509.51775066 759.33970586 -513.84166304 765.04014486 -517.97265625 770.8984375 C-522.09597786 776.73398588 -526.3230972 782.48521349 -530.59765625 788.2109375 C-531.21584229 789.04375244 -531.83402832 789.87656738 -532.47094727 790.73461914 C-544.43108477 806.69905993 -544.43108477 806.69905993 -551.91015625 808.8359375 C-558.53742655 809.54600218 -563.12053451 807.61115133 -568.66015625 804.0859375 C-574.83077721 797.91531654 -574.9925408 789.00327513 -576.08203125 780.7734375 C-576.28232764 779.31708903 -576.48349148 777.86085966 -576.68544006 776.40473938 C-577.23868004 772.39649362 -577.77927294 768.38662874 -578.31775284 764.37637711 C-578.89828007 760.06919347 -579.49035949 755.76359594 -580.08081055 751.45776367 C-581.26690858 742.79224905 -582.44105616 734.12515156 -583.61095524 725.45743656 C-584.66907865 717.61790297 -585.73048175 709.77881855 -586.79345703 701.93994141 C-590.16548771 677.06890297 -593.52736352 652.19651714 -596.87586594 627.32229996 C-598.44835931 615.64240178 -600.02609708 603.96326997 -601.62255859 592.28662109 C-601.75982078 591.28236556 -601.89708296 590.27811003 -602.0385046 589.24342251 C-602.67987325 584.5528116 -603.32243471 579.86236878 -603.96699524 575.17219543 C-604.08206767 574.33113817 -604.1971401 573.49008091 -604.31569958 572.62353706 C-604.53840206 570.99960706 -604.76294133 569.37592768 -604.98949909 567.75253105 C-605.52254475 563.89144818 -606.00516188 560.03484357 -606.3921814 556.15620422 C-606.50918884 555.04636909 -606.50918884 555.04636909 -606.62856007 553.91411304 C-606.83549241 551.91235925 -607.02403378 549.90872818 -607.2111969 547.9050293 C-607.62887803 544.80870132 -607.62887803 544.80870132 -609.64305115 543.11068726 C-612.02225305 541.93498758 -614.32048621 541.42057513 -616.91015625 540.8359375 C-618.65686046 540.24202783 -620.40317288 539.64665719 -622.141922 539.02984619 C-624.88052638 538.0668858 -627.63921198 537.16851323 -630.39779663 536.26470947 C-632.73315534 535.49951903 -635.0665914 534.72869158 -637.3996582 533.95654297 C-640.7894006 532.83513201 -644.17984031 531.71586668 -647.57080078 530.59814453 C-656.75226398 527.57001983 -665.92519261 524.51619366 -675.09765625 521.4609375 C-676.04657745 521.14496613 -676.99549866 520.82899475 -677.97317505 520.50344849 C-695.5817531 514.63764336 -713.14977201 508.65746585 -730.70741272 502.64123535 C-737.72835813 500.23698399 -744.75412397 497.84705763 -751.78125 495.4609375 C-752.88250717 495.08693817 -753.98376434 494.71293884 -755.11839294 494.3276062 C-759.46326483 492.85222782 -763.8081965 491.37702823 -768.15365601 489.90338135 C-774.0804604 487.89335801 -780.00532144 485.87779271 -785.92739868 483.85388184 C-787.97685406 483.15445138 -790.02700338 482.45705199 -792.07772827 481.76135254 C-795.21777233 480.69531384 -798.35520003 479.62187007 -801.4921875 478.546875 C-802.44211578 478.22598907 -803.39204407 477.90510315 -804.37075806 477.57449341 C-815.75019565 473.65441181 -823.85654118 468.68940817 -829.93359375 458.04296875 C-833.16278471 451.09576434 -832.9673758 442.56523295 -831.32421875 435.21484375 C-827.57824814 425.30004998 -817.74325049 419.73129798 -808.78515625 415.0859375 C-807.83286133 414.5791748 -806.88056641 414.07241211 -805.89941406 413.55029297 C-802.91021952 411.96463933 -799.91173104 410.39801154 -796.91015625 408.8359375 C-795.03253297 407.85420322 -793.15492847 406.87243303 -791.27734375 405.890625 C-788.45241639 404.41596809 -785.62643958 402.94343636 -782.7980957 401.4753418 C-771.09683451 395.3962669 -759.5055428 389.11390785 -747.91015625 382.8359375 C-746.88744629 382.28260742 -745.86473633 381.72927734 -744.81103516 381.15917969 C-738.83463499 377.92552546 -732.86025164 374.688166 -726.88671875 371.44921875 C-723.87433761 369.81652399 -720.86112697 368.18537024 -717.84765625 366.5546875 C-708.23458115 361.35211725 -698.62719218 356.13970682 -689.03515625 350.8984375 C-675.58346167 343.55088344 -662.07888751 336.30177956 -648.578125 329.04492188 C-636.44411361 322.52164313 -624.3208272 315.98065502 -612.23291016 309.37231445 C-604.0811355 304.9198066 -595.90336718 300.51624904 -587.72265625 296.1171875 C-580.44480253 292.20297539 -573.1744463 288.27526096 -565.91015625 284.3359375 C-557.54378393 279.79897015 -549.16745821 275.28090176 -540.78515625 270.7734375 C-532.81306156 266.4858452 -524.85266386 262.17809279 -516.91015625 257.8359375 C-507.8675911 252.89238264 -498.79922886 247.99798598 -489.72265625 243.1171875 C-482.44480253 239.20297539 -475.1744463 235.27526096 -467.91015625 231.3359375 C-459.54378393 226.79897015 -451.16745821 222.28090176 -442.78515625 217.7734375 C-434.81306156 213.4858452 -426.85266386 209.17809279 -418.91015625 204.8359375 C-409.8675911 199.89238264 -400.79922886 194.99798598 -391.72265625 190.1171875 C-384.44480253 186.20297539 -377.1744463 182.27526096 -369.91015625 178.3359375 C-361.54378393 173.79897015 -353.16745821 169.28090176 -344.78515625 164.7734375 C-336.81306156 160.4858452 -328.85266386 156.17809279 -320.91015625 151.8359375 C-311.8675911 146.89238264 -302.79922886 141.99798598 -293.72265625 137.1171875 C-286.44480253 133.20297539 -279.1744463 129.27526096 -271.91015625 125.3359375 C-263.54378393 120.79897015 -255.16745821 116.28090176 -246.78515625 111.7734375 C-238.81306156 107.4858452 -230.85266386 103.17809279 -222.91015625 98.8359375 C-213.87046246 93.89395241 -204.80475414 89.00153633 -195.73144531 84.12158203 C-179.90443888 75.60818044 -164.105242 67.04423757 -148.33666992 58.4230957 C-143.42199515 55.73961221 -138.49833479 53.07407125 -133.5625 50.4296875 C-123.05132889 44.79800412 -112.57901036 39.12340322 -102.22265625 33.2109375 C-93.76848248 28.3852768 -85.20886812 23.82055403 -76.55419922 19.3659668 C-69.55675429 15.74534179 -62.68828055 11.93140367 -55.84765625 8.0234375 C-20.19768353 -12.30860878 -20.19768353 -12.30860878 0 0 Z M-71.91015625 88.8359375 C-74.2110027 89.73668881 -74.2110027 89.73668881 -76.80078125 91.16015625 C-77.80874756 91.68794678 -78.81671387 92.2157373 -79.85522461 92.75952148 C-80.94585205 93.34161377 -82.03647949 93.92370605 -83.16015625 94.5234375 C-84.28752197 95.11777588 -85.4148877 95.71211426 -86.57641602 96.32446289 C-95.51082646 101.04972314 -104.39059242 105.87418378 -113.25 110.73828125 C-119.45085495 114.13994934 -125.6798149 117.48866683 -131.91015625 120.8359375 C-139.92428851 125.14373202 -147.92699485 129.47101202 -155.91015625 133.8359375 C-169.31869442 141.16544989 -182.78240524 148.39212292 -196.2421875 155.62695312 C-207.48026057 161.6685729 -218.7143944 167.71618566 -229.91015625 173.8359375 C-241.10879401 179.95726134 -252.34590293 186.00624126 -263.58691406 192.04931641 C-284.08008644 203.06673012 -304.57236392 214.08645533 -324.98681641 225.24926758 C-334.22896273 230.30248493 -343.4967471 235.30583927 -352.78515625 240.2734375 C-368.22163112 248.52927145 -383.62272352 256.84916365 -398.98242188 265.24707031 C-408.82290172 270.62667618 -418.69412731 275.94677289 -428.58380127 281.23526001 C-437.72732887 286.12494076 -446.85416438 291.04448271 -455.96777344 295.98974609 C-463.31493034 299.97545069 -470.67325291 303.94004622 -478.03515625 307.8984375 C-486.00726981 312.1859954 -493.96762023 316.49383433 -501.91015625 320.8359375 C-515.31874288 328.16536252 -528.78240435 335.39212244 -542.2421875 342.62695312 C-554.37619889 349.15023187 -566.4994853 355.69121998 -578.58740234 362.29956055 C-586.739177 366.7520684 -594.91694532 371.15562596 -603.09765625 375.5546875 C-610.37551012 379.46889969 -617.64584488 383.39665321 -624.91015625 387.3359375 C-633.23580014 391.85029578 -641.56983362 396.34875724 -649.91015625 400.8359375 C-661.24639135 406.93546224 -672.56870246 413.06033634 -683.88525391 419.19628906 C-687.04279082 420.90783207 -690.20099143 422.6181449 -693.359375 424.328125 C-694.95724854 425.19328735 -694.95724854 425.19328735 -696.58740234 426.07592773 C-698.60199776 427.16668322 -700.61664207 428.25734841 -702.63134766 429.34790039 C-709.06437547 432.83156848 -715.48959261 436.32935192 -721.91015625 439.8359375 C-721.91015625 440.8259375 -721.91015625 441.8159375 -721.91015625 442.8359375 C-695.95776953 451.35728469 -669.99481377 459.84224356 -643.97265625 468.1484375 C-639.86586346 469.45956665 -635.75907678 470.77071491 -631.65234375 472.08203125 C-630.66559158 472.39710632 -629.67883942 472.7121814 -628.66218567 473.0368042 C-619.44324714 475.98206916 -610.23023369 478.94546948 -601.02267456 481.92611694 C-599.42694952 482.44254926 -597.83102772 482.95837405 -596.2348938 483.47354126 C-594.06747758 484.17330316 -591.90081186 484.87533782 -589.734375 485.578125 C-588.52869873 485.9685498 -587.32302246 486.35897461 -586.08081055 486.76123047 C-583.31227129 487.69963886 -580.62223495 488.74919526 -577.91015625 489.8359375 C-575.16797825 490.4020047 -573.59206799 490.22414052 -571.15185547 488.83496094 C-568.99879637 487.35463246 -566.92244067 485.79913342 -564.84765625 484.2109375 C-563.23293443 483.00885207 -561.61700501 481.80838741 -560 480.609375 C-559.1632373 479.98514648 -558.32647461 479.36091797 -557.46435547 478.71777344 C-553.33599146 475.67615331 -549.12303651 472.75876684 -544.91015625 469.8359375 C-538.50850796 465.37835183 -532.1552323 460.8630965 -525.84765625 456.2734375 C-519.73435314 451.82562193 -513.54486892 447.51248207 -507.28515625 443.2734375 C-500.62980637 438.76421151 -494.1532169 434.08045062 -487.75512695 429.21459961 C-481.95324312 424.82024337 -475.98367196 420.7047033 -469.96875 416.609375 C-459.12069128 409.2200036 -448.47709319 401.53735024 -437.85205078 393.83251953 C-431.40963673 389.17190262 -424.89818241 384.61427263 -418.37402344 380.0690918 C-412.82241961 376.1944678 -407.32183943 372.25652079 -401.84765625 368.2734375 C-395.71067068 363.81005212 -389.50122647 359.4727243 -383.22265625 355.2109375 C-376.87643385 350.9026696 -370.63083856 346.49256952 -364.4675293 341.92700195 C-357.04133562 336.43219547 -349.46999984 331.14446001 -341.91015625 325.8359375 C-339.09644378 323.85848866 -336.28393357 321.8793468 -333.47265625 319.8984375 C-332.42271484 319.15883789 -332.42271484 319.15883789 -331.3515625 318.40429688 C-326.21511037 314.77773589 -321.12146837 311.0948563 -316.03515625 307.3984375 C-309.85847869 302.91057474 -303.60670109 298.55453632 -297.28515625 294.2734375 C-290.62981548 289.76419565 -284.1532181 285.08045153 -277.75512695 280.21459961 C-271.95324312 275.82024337 -265.98367196 271.7047033 -259.96875 267.609375 C-249.88522338 260.74077988 -239.97514094 253.62135675 -230.09765625 246.4609375 C-221.24273735 240.04449735 -212.29974653 233.76005586 -203.31884766 227.52148438 C-200.95507561 225.86737104 -198.60876304 224.19098918 -196.265625 222.5078125 C-194.83466828 221.4921412 -193.4036804 220.4765138 -191.97265625 219.4609375 C-191.00658447 218.75493408 -191.00658447 218.75493408 -190.02099609 218.03466797 C-186.57009967 215.60639611 -184.18399533 214.12756638 -179.91015625 214.8359375 C-178.91015625 215.8359375 -178.91015625 215.8359375 -178.47265625 218.7734375 C-178.65835297 227.09602684 -185.95982044 234.34115761 -190.82055664 240.53686523 C-194.2628803 244.93739408 -197.51842893 249.44716917 -200.72265625 254.0234375 C-204.88924909 259.97111294 -209.08984064 265.89064299 -213.34765625 271.7734375 C-213.88535645 272.51650146 -214.42305664 273.25956543 -214.97705078 274.02514648 C-216.0697198 275.53437316 -217.16265694 277.04340575 -218.25585938 278.55224609 C-228.48753059 292.67666354 -238.68126611 306.82550324 -248.72265625 321.0859375 C-253.44833132 327.79656355 -258.23814443 334.45834447 -263.05395508 341.10449219 C-266.70965611 346.15608562 -270.32350177 351.2351281 -273.91015625 356.3359375 C-278.57152374 362.96516462 -283.29960056 369.54322287 -288.0546875 376.10546875 C-291.71011213 381.15675958 -295.32373587 386.23546102 -298.91015625 391.3359375 C-303.57152374 397.96516462 -308.29960056 404.54322287 -313.0546875 411.10546875 C-316.71011262 416.15676026 -320.32369227 421.23549112 -323.91015625 426.3359375 C-328.61994231 433.03293233 -333.39287853 439.68181008 -338.19311523 446.31420898 C-345.1013352 455.85926489 -351.9389902 465.45201008 -358.72265625 475.0859375 C-363.44833132 481.79656355 -368.23814443 488.45834447 -373.05395508 495.10449219 C-376.70965867 500.15608916 -380.32326566 505.23529156 -383.91015625 510.3359375 C-391.40235739 520.98171229 -398.99590085 531.55406288 -406.73828125 542.01953125 C-407.68888428 543.304646 -407.68888428 543.304646 -408.65869141 544.61572266 C-409.88004851 546.26422104 -411.10357072 547.91111824 -412.32958984 549.55615234 C-413.87341429 551.63773858 -415.39669723 553.73221858 -416.91015625 555.8359375 C-417.91175781 557.21845703 -417.91175781 557.21845703 -418.93359375 558.62890625 C-420.17916415 560.75755927 -420.17916415 560.75755927 -419.24334717 562.68852234 C-417.62232365 565.29955908 -415.74049264 567.23728645 -413.55566406 569.40161133 C-412.203508 570.74869926 -412.203508 570.74869926 -410.82403564 572.1230011 C-409.83714377 573.09635027 -408.85022496 574.06967214 -407.86328125 575.04296875 C-406.84867186 576.05130058 -405.83458066 577.06015406 -404.82098389 578.06950378 C-402.15110875 580.72608683 -399.47573186 583.3770531 -396.79870605 586.02642822 C-392.5275753 590.25444357 -388.26303177 594.48907331 -384.00191498 598.72717857 C-382.52104754 600.19792637 -381.03675613 601.66514996 -379.55206299 603.1320343 C-374.77285139 607.87709814 -370.25220546 612.69118824 -365.91015625 617.8359375 C-364.92015625 618.6609375 -363.93015625 619.4859375 -362.91015625 620.3359375 C-360.01175192 622.75127444 -357.76175534 625.23949844 -355.359375 628.12109375 C-353.32815618 630.52461144 -351.23111665 632.70839047 -348.91015625 634.8359375 C-348.25015625 634.8359375 -347.59015625 634.8359375 -346.91015625 634.8359375 C-346.25015625 636.1559375 -345.59015625 637.4759375 -344.91015625 638.8359375 C-344.25015625 638.8359375 -343.59015625 638.8359375 -342.91015625 638.8359375 C-342.25015625 640.1559375 -341.59015625 641.4759375 -340.91015625 642.8359375 C-340.25015625 642.8359375 -339.59015625 642.8359375 -338.91015625 642.8359375 C-338.25015625 644.1559375 -337.59015625 645.4759375 -336.91015625 646.8359375 C-336.25015625 646.8359375 -335.59015625 646.8359375 -334.91015625 646.8359375 C-334.25015625 648.1559375 -333.59015625 649.4759375 -332.91015625 650.8359375 C-332.25015625 650.8359375 -331.59015625 650.8359375 -330.91015625 650.8359375 C-330.25015625 652.1559375 -329.59015625 653.4759375 -328.91015625 654.8359375 C-328.25015625 654.8359375 -327.59015625 654.8359375 -326.91015625 654.8359375 C-326.25015625 656.1559375 -325.59015625 657.4759375 -324.91015625 658.8359375 C-324.25015625 658.8359375 -323.59015625 658.8359375 -322.91015625 658.8359375 C-322.70390625 659.3928125 -322.49765625 659.9496875 -322.28515625 660.5234375 C-320.39885993 663.69584495 -317.7553082 665.51336448 -314.91015625 667.8359375 C-313.90441847 669.16494814 -312.90220217 670.49667551 -311.91015625 671.8359375 C-311.25015625 671.8359375 -310.59015625 671.8359375 -309.91015625 671.8359375 C-309.25015625 673.1559375 -308.59015625 674.4759375 -307.91015625 675.8359375 C-307.25015625 675.8359375 -306.59015625 675.8359375 -305.91015625 675.8359375 C-305.25015625 677.1559375 -304.59015625 678.4759375 -303.91015625 679.8359375 C-303.25015625 679.8359375 -302.59015625 679.8359375 -301.91015625 679.8359375 C-301.25015625 681.1559375 -300.59015625 682.4759375 -299.91015625 683.8359375 C-299.25015625 683.8359375 -298.59015625 683.8359375 -297.91015625 683.8359375 C-297.69843781 684.37297302 -297.48671936 684.91000854 -297.26858521 685.46331787 C-295.3981539 688.73019614 -292.83317649 691.17447471 -290.17529297 693.79785156 C-289.58978668 694.3836499 -289.0042804 694.96944824 -288.40103149 695.57299805 C-286.46867269 697.50396589 -284.52933109 699.42775697 -282.58984375 701.3515625 C-281.24705169 702.69062361 -279.90470112 704.03012759 -278.56277466 705.37005615 C-275.03261908 708.89258179 -271.49649819 712.40905953 -267.95910645 715.92431641 C-264.34932774 719.51362301 -260.7452161 723.10861006 -257.140625 726.703125 C-250.06934067 733.75297068 -242.99174212 740.79644087 -235.91015625 747.8359375 C-234.92015625 747.5059375 -233.93015625 747.1759375 -232.91015625 746.8359375 C-232.04505335 744.98725007 -232.04505335 744.98725007 -231.55111694 742.64756775 C-231.32139065 741.7276322 -231.09166435 740.80769665 -230.85497665 739.85988426 C-230.61070057 738.82580751 -230.36642448 737.79173077 -230.11474609 736.72631836 C-229.84200993 735.61964121 -229.56927376 734.51296406 -229.28827286 733.37275124 C-228.51311445 730.2189608 -227.74953046 727.06259033 -226.98955584 723.90511441 C-226.14283553 720.4015796 -225.28030125 716.9019465 -224.41854858 713.40208435 C-223.25128406 708.65866114 -222.08497422 703.91501663 -220.92378426 699.17010212 C-217.5089357 685.22234725 -214.03683632 671.28924183 -210.54785156 657.35986328 C-210.26740793 656.24015916 -209.98696429 655.12045503 -209.69802237 653.96682048 C-208.53518598 649.32462917 -207.37209598 644.68250151 -206.20864463 640.04046428 C-203.15451207 627.85464281 -200.10664613 615.66725636 -197.05912924 603.47977901 C-195.48590946 597.18837339 -193.91239463 590.89704157 -192.33886719 584.60571289 C-191.86853408 582.72518268 -191.86853408 582.72518268 -191.38869929 580.80666196 C-189.17372517 571.95080936 -186.95808993 563.09512231 -184.7421875 554.23950195 C-181.01817682 539.35662119 -177.29531929 524.47345241 -173.57421875 509.58984375 C-173.27241605 508.3826973 -172.97061335 507.17555085 -172.65966511 505.93182421 C-164.54833007 473.48546149 -156.4801097 441.02903259 -148.49184078 408.55216008 C-142.39837043 383.77944672 -136.2262206 359.02690334 -130.02679551 334.2804817 C-125.16841204 314.88640724 -120.32913366 295.4875616 -115.48722708 276.08936858 C-111.66730976 260.78608132 -107.84475853 245.48345187 -104.02227592 230.18080521 C-100.98080022 218.00447585 -97.94025373 205.82791566 -94.90161133 193.65087891 C-92.20298729 182.83644707 -89.50270676 172.02243043 -86.80044299 161.20890749 C-85.38364027 155.53910686 -83.9676467 149.8691071 -82.55368614 144.19859695 C-81.23651553 138.9163354 -79.91713507 133.63463076 -78.59606171 128.35334396 C-78.11432607 126.42585311 -77.63339137 124.49816186 -77.15333748 122.57025146 C-72.71363015 104.74374748 -72.71363015 104.74374748 -70.41062641 97.68906212 C-69.69705005 95.04685481 -69.69596952 92.54896936 -69.91015625 89.8359375 C-70.57015625 89.5059375 -71.23015625 89.1759375 -71.91015625 88.8359375 Z " fill="#FEFEFE" transform="translate(831.91015625,6.1640625)"/>
</svg>
